<svg height="155" viewBox="0 0 368 155" width="368"
    xmlns="http://www.w3.org/2000/svg">
    <g fill="none" transform="translate(14 27)">
        <path d="m55.4597973 2.78125395c.908473 1.12550547 1.3717457 2.64423885 2.298291 5.68169317l20.2419117 66.35612928c-7.4840283-3.8743199-15.6199038-6.6685565-24.2001072-8.176121l-13.1795275-44.4446053c-.2156206-.7272279-.8850414-1.226101-1.6449482-1.226101-.7619009 0-1.4324435.501485-1.6464438 1.2312004l-13.0198685 44.4171181c-8.620087 1.5007238-16.79307909 4.3000596-24.3091048 8.188434l20.3411876-66.36141496c.9294119-3.03223051 1.3941802-4.54836442 2.3027779-5.67179281.8020338-.991801 1.8453632-1.76205932 3.0304039-2.23738178 1.3423316-.53841205 2.9310689-.53841205 6.1086681-.53841205h14.5285893c3.1817123 0 4.7725684 0 6.1161463.53953517 1.1860378.47630752 2.2299904 1.24812676 3.0320242 2.24171878z" fill="#000" class="svg-contrast"/>
        <path d="m57.8819767 77.9769893c-3.3368843 2.8474692-9.9973167 4.7893557-17.6691717 4.7893557-9.4162628 0-17.3084745-2.9253291-19.4027362-6.8595988-.7486894 2.2548173-.9165743 4.8353755-.9165743 6.4838578 0 0-.49331 8.0946543 5.1484709 13.724794 0-2.9234638 2.3749423-5.2933287 5.304391-5.2933287 5.0212174 0 5.0156088 4.371576 5.0109972 7.918289-.0001246.1062177-.0002493.211813-.0002493.3165375 0 5.3832522 3.2970007 9.9979842 7.9858136 11.9431042-.7003307-1.437416-1.0931839-3.051571-1.0931839-4.757391 0-5.134251 3.0205577-7.0459145 6.5310601-9.2677712 2.7930966-1.7677599 5.8965373-3.7317852 8.035294-7.6717752 1.1158677-2.0556906 1.749518-4.4102569 1.749518-6.9124586 0-1.5387829-.2395507-3.0217203-.6836294-4.4136147z" fill="#ff5d01" class="svg-brand" />
        <path d="m123.530244 73c8.427325 0 14.747942-2.9685274 17.340698-8.022811 0 2.4068312.161272 4.893992.566933 6.8194568h13.855736l-.039243-.1732371c-.614934-2.7635952-.925604-6.5102145-.932009-11.3859874l-.000101-12.5096999c0-11.7134491-6.969427-17.2492219-22.445325-17.2492219-13.532697 0-22.608085 5.5357728-23.661439 14.6017692h14.423413c.486172-3.9312597 3.808125-6.0974691 9.238026-6.0974691 5.346783 0 8.345199 2.1662094 8.345199 6.6591653v1.2032313l-14.665817 1.2836842c-7.05976.7150112-11.101254 1.9014483-13.933173 3.7935013l-.085448.0575512c-2.998044 2.0055492-4.537694 5.0545294-4.537694 8.825129 0 7.5415677 6.320369 12.1949381 16.530244 12.1949381zm5.348272-8.3438856c-4.700455 0-7.536111-1.8451347-7.536111-4.8136621 0-3.0486117 2.349359-4.6533704 8.265556-5.3753583l10.85732-1.1231469v2.4068311c0 5.3753583-4.699215 8.9053362-11.586765 8.9053362zm55.640042 8.3438856c14.100125 0 21.311459-5.2148212 21.311459-13.6389139 0-6.9799943-4.051646-10.8310467-13.855736-12.1147309l-12.236815-1.3637686c-3.483473-.4816118-4.942363-1.364137-4.942363-3.2896019 0-2.3265009 2.349607-3.3695634 7.697632-3.3695634 7.373846 0 12.478722 1.6848431 16.612245 4.9743222l6.562525-6.4986281c-4.537943-4.6532476-12.396846-7.2206159-22.120301-7.2206159-13.694464 0-21.311459 4.8136621-21.311459 12.9168032 0 7.0602015 4.699215 10.9914612 14.422669 12.2750226l11.021072 1.2836841c4.375431.5616963 5.671809 1.3641371 5.671809 3.4498935 0 2.4070768-2.431484 3.6907609-8.103292 3.6907609-8.427077 0-14.098885-2.2465394-17.907382-6.4184209l-7.454483 6.0973463c4.942363 6.0975918 13.369439 9.2264108 24.63242 9.2264108zm32.751838-32.25215v16.9283929c0 9.9483991 5.671809 15.002928 17.826747 15.002928 3.727862 0 6.644401-.4011586 9.39967-1.2034764v-10.4300109l-.233078.0506472c-1.415033.3033101-3.132151.5912563-5.358095.5912563-5.104875 0-7.616995-2.2462938-7.616995-6.9798714v-13.9598657h13.288804v-9.0659964h-13.288804v-14.6818536l-14.018249 5.1346138v9.5472398h-9.075885v9.0659964zm47.432544-9.0659964h-12.802507v40.1147922h14.018248v-15.0028052c0-4.3326644.972594-8.2638012 3.647226-10.7509623 2.106459-1.9255877 5.104876-2.9682817 9.317794-2.9682817 1.539526 0 2.755268.1601688 4.132282.3207061v-12.5959743c-.890717-.1604145-1.539527-.1604145-2.673392-.1604145-8.022656 0-13.451316 4.5730404-15.639651 12.0345237zm46.01459 41.3181464c14.829571 0 25.28247-7.7821894 25.28247-21.340896 0-13.4786224-10.452899-21.1806045-25.28247-21.1806045-14.908965 0-25.361865 7.7019821-25.361865 21.1806045 0 13.5587066 10.4529 21.340896 25.361865 21.340896zm0-9.2264108c-6.805673 0-11.100467-4.3322959-11.100467-12.1144852 0-7.7824351 4.294794-11.9543165 11.100467-11.9543165 6.726278 0 11.021073 4.1718814 11.021073 11.9543165 0 7.7821893-4.294795 12.1144852-11.021073 12.1144852z" fill="#000" class="svg-contrast" />
    </g>
    <style>
        .svg-contrast {
            fill: var(--text-color);
        }
        .svg-brand {
            fill: #ff5d01;
        }
    </style>
</svg>